REM DIRINDEX 1\5,1\2\6,1\2\7,1\3\8,1\3\9,1\4\10,1\4\11,1\4\12
REM DIRNAME folder01,folder02,folder03,folder04,folder05,folder06,folder07,folder08,folder09,folder10,folder11,folder12
TITLE ""
FILE "EJE_DB3000_5th_2A_41.mp3" MP3
  TRACK 01 AUDIO
    TITLE "0:"
    INDEX 01 00:00:00
  TRACK 02 AUDIO
    TITLE "10:cjc026_08010"
    INDEX 01 00:00:05
  TRACK 03 AUDIO
    TITLE "0:"
    INDEX 01 00:00:70
  TRACK 04 AUDIO
    TITLE "11:cjc026_08011"
    INDEX 01 00:01:22
  TRACK 05 AUDIO
    TITLE "0:"
    INDEX 01 00:02:08
  TRACK 06 AUDIO
    TITLE "12:cjc026_08012"
    INDEX 01 00:02:34
  TRACK 07 AUDIO
    TITLE "0:"
    INDEX 01 00:03:23
  TRACK 08 AUDIO
    TITLE "10:cjc026_08013"
    INDEX 01 00:03:49
  TRACK 09 AUDIO
    TITLE "0:"
    INDEX 01 00:04:36
  TRACK 10 AUDIO
    TITLE "11:cjc026_08014"
    INDEX 01 00:04:62
  TRACK 11 AUDIO
    TITLE "0:"
    INDEX 01 00:05:67
  TRACK 12 AUDIO
    TITLE "12:cjc026_08015"
    INDEX 01 00:06:18
  TRACK 13 AUDIO
    TITLE "0:"
    INDEX 01 00:07:03
  TRACK 14 AUDIO
    TITLE "10:cjc026_08016"
    INDEX 01 00:07:31
  TRACK 15 AUDIO
    TITLE "0:"
    INDEX 01 00:08:30
  TRACK 16 AUDIO
    TITLE "11:cjc026_08017"
    INDEX 01 00:08:56
  TRACK 17 AUDIO
    TITLE "0:"
    INDEX 01 00:09:53
  TRACK 18 AUDIO
    TITLE "12:cjc026_08018"
    INDEX 01 00:10:06
  TRACK 19 AUDIO
    TITLE "0:"
    INDEX 01 00:11:05
  TRACK 20 AUDIO
    TITLE "10:cjc026_08019"
    INDEX 01 00:11:31
  TRACK 21 AUDIO
    TITLE "0:"
    INDEX 01 00:12:16
  TRACK 22 AUDIO
    TITLE "11:cjc026_08020"
    INDEX 01 00:12:42
  TRACK 23 AUDIO
    TITLE "0:"
    INDEX 01 00:13:39
  TRACK 24 AUDIO
    TITLE "12:cjc026_08021"
    INDEX 01 00:13:65
  TRACK 25 AUDIO
    TITLE "0:"
    INDEX 01 00:14:51
  TRACK 26 AUDIO
    TITLE "10:cjc026_08022"
    INDEX 01 00:15:01
  TRACK 27 AUDIO
    TITLE "0:"
    INDEX 01 00:15:58
  TRACK 28 AUDIO
    TITLE "11:cjc026_08023"
    INDEX 01 00:16:10
  TRACK 29 AUDIO
    TITLE "0:"
    INDEX 01 00:17:14
  TRACK 30 AUDIO
    TITLE "12:cjc026_08024"
    INDEX 01 00:17:41
  TRACK 31 AUDIO
    TITLE "0:"
    INDEX 01 00:18:21
  TRACK 32 AUDIO
    TITLE "10:cjc026_08025"
    INDEX 01 00:18:48
  TRACK 33 AUDIO
    TITLE "0:"
    INDEX 01 00:19:40
  TRACK 34 AUDIO
    TITLE "11:cjc026_08026"
    INDEX 01 00:19:65
  TRACK 35 AUDIO
    TITLE "0:"
    INDEX 01 00:20:69
  TRACK 36 AUDIO
    TITLE "12:cjc026_08027"
    INDEX 01 00:21:21
  TRACK 37 AUDIO
    TITLE "0:"
    INDEX 01 00:22:11
  TRACK 38 AUDIO
    TITLE "10:cjc026_08028"
    INDEX 01 00:22:38
  TRACK 39 AUDIO
    TITLE "0:"
    INDEX 01 00:23:30
  TRACK 40 AUDIO
    TITLE "11:cjc026_08029"
    INDEX 01 00:23:55
  TRACK 41 AUDIO
    TITLE "0:"
    INDEX 01 00:24:57
  TRACK 42 AUDIO
    TITLE "12:cjc026_08030"
    INDEX 01 00:25:07
  TRACK 43 AUDIO
    TITLE "0:"
    INDEX 01 00:25:74
  TRACK 44 AUDIO
    TITLE "10:cjc026_08031"
    INDEX 01 00:26:26
  TRACK 45 AUDIO
    TITLE "0:"
    INDEX 01 00:26:71
  TRACK 46 AUDIO
    TITLE "11:cjc026_08032"
    INDEX 01 00:27:28
  TRACK 47 AUDIO
    TITLE "0:"
    INDEX 01 00:28:39
  TRACK 48 AUDIO
    TITLE "12:cjc026_08033"
    INDEX 01 00:28:66
  TRACK 49 AUDIO
    TITLE "0:"
    INDEX 01 00:29:36
  TRACK 50 AUDIO
    TITLE "10:cjc026_08034"
    INDEX 01 00:29:66
  TRACK 51 AUDIO
    TITLE "0:"
    INDEX 01 00:30:59
  TRACK 52 AUDIO
    TITLE "11:cjc026_08035"
    INDEX 01 00:31:10
  TRACK 53 AUDIO
    TITLE "0:"
    INDEX 01 00:32:25
  TRACK 54 AUDIO
    TITLE "12:cjc026_08036"
    INDEX 01 00:32:52
  TRACK 55 AUDIO
    TITLE "0:"
    INDEX 01 00:33:44
  TRACK 56 AUDIO
    TITLE "10:cjc026_08037"
    INDEX 01 00:33:71
  TRACK 57 AUDIO
    TITLE "0:"
    INDEX 01 00:34:67
  TRACK 58 AUDIO
    TITLE "11:cjc026_08038"
    INDEX 01 00:35:19
  TRACK 59 AUDIO
    TITLE "0:"
    INDEX 01 00:36:29
  TRACK 60 AUDIO
    TITLE "12:cjc026_08039"
    INDEX 01 00:36:56
  TRACK 61 AUDIO
    TITLE "0:"
    INDEX 01 00:37:52
  TRACK 62 AUDIO
    TITLE "10:cjc026_08040"
    INDEX 01 00:38:04
  TRACK 63 AUDIO
    TITLE "0:"
    INDEX 01 00:39:00
  TRACK 64 AUDIO
    TITLE "11:cjc026_08041"
    INDEX 01 00:39:25
  TRACK 65 AUDIO
    TITLE "0:"
    INDEX 01 00:40:34
  TRACK 66 AUDIO
    TITLE "12:cjc026_08042"
    INDEX 01 00:40:60
  TRACK 67 AUDIO
    TITLE "0:"
    INDEX 01 00:41:55
  TRACK 68 AUDIO
    TITLE "10:cjc026_08043"
    INDEX 01 00:42:06
  TRACK 69 AUDIO
    TITLE "0:"
    INDEX 01 00:43:03
  TRACK 70 AUDIO
    TITLE "11:cjc026_08044"
    INDEX 01 00:43:31
  TRACK 71 AUDIO
    TITLE "0:"
    INDEX 01 00:44:38
  TRACK 72 AUDIO
    TITLE "12:cjc026_08045"
    INDEX 01 00:44:63
  TRACK 73 AUDIO
    TITLE "0:"
    INDEX 01 00:45:61
